Coordinates
version=1
nRows=12
nColumns=24
inDegrees=yes

Units are S.I. units (second, meters, Newtons, ...)
Angles are in degrees.

endheader
time	pelvis_tilt	pelvis_list	pelvis_rotation	pelvis_tx	pelvis_ty	pelvis_tz	hip_flexion_r	hip_adduction_r	hip_rotation_r	knee_angle_r	ankle_angle_r	subtalar_angle_r	mtp_angle_r	hip_flexion_l	hip_adduction_l	hip_rotation_l	knee_angle_l	ankle_angle_l	subtalar_angle_l	mtp_angle_l	lumbar_extension	lumbar_bending	lumbar_rotation
      5.54000000	      3.55179182	      6.60786677	     -1.09380308	      1.26443062	      1.04683675	     -0.28323110	     16.09360737	     -5.88278027	     -7.01201623	     -1.45015260	      8.22109379	    -10.69453371	      0.00000000	    -23.20913424	      7.97497152	      6.09371517	     -5.13905728	     -0.07550565	    -20.12022203	      0.00000000	    -12.64782052	     -3.27920035	   -188.13530320
      5.55000000	      3.80022198	      6.33613887	     -1.24610771	      1.28048012	      1.04604817	     -0.28061900	     15.92647113	     -5.58524157	     -7.62524923	     -2.76821424	      8.10659226	    -10.74431095	      0.00000000	    -23.53369402	      7.57508269	      4.89022629	     -6.52051082	     -0.20857459	    -18.66933352	      0.00000000	    -12.44716395	     -3.01077287	   -187.97585035
      5.56000000	      4.05874779	      6.00766626	     -1.41021459	      1.29687632	      1.04533337	     -0.27784821	     15.66797332	     -5.23416169	     -8.19790128	     -4.14786514	      7.63179798	    -11.11511607	      0.00000000	    -23.78348906	      7.09268776	      3.45550456	     -8.05538601	     -0.53772677	    -17.09794940	      0.00000000	    -12.20878221	     -2.69193455	   -187.75895871
      5.57000000	      4.21643518	      5.63022856	     -1.56460802	      1.31349665	      1.04462717	     -0.27494857	     15.44393965	     -4.83843368	     -8.76951610	     -5.51838222	      6.70982503	    -11.80358380	      0.00000000	    -23.79638864	      6.51470532	      1.72803336	     -9.81331611	     -0.97863458	    -15.35797429	      0.00000000	    -11.81820612	     -2.33107218	   -187.52042493
      5.58000000	      4.33988222	      5.15677334	     -1.71122957	      1.33023092	      1.04407831	     -0.27194856	     15.17174110	     -4.34766328	     -9.30243297	     -6.80420028	      5.48038460	    -12.72103169	      0.00000000	    -23.64798940	      5.78465066	     -0.19113266	    -11.77812391	     -1.70961816	    -13.63787447	      0.00000000	    -11.37577490	     -1.86801338	   -187.23797009
      5.59000000	      4.42218031	      4.57108661	     -1.85048630	      1.34696584	      1.04373475	     -0.26889389	     14.87826714	     -3.74346694	     -9.78178630	     -8.00738351	      4.14944674	    -13.72424919	      0.00000000	    -23.33171459	      4.88429197	     -2.18662740	    -13.94257429	     -2.82134072	    -12.11312106	      0.00000000	    -10.88784123	     -1.27844175	   -186.90875352
      5.60000000	      4.49006036	      3.87733121	     -2.00140426	      1.36359452	      1.04365401	     -0.26583203	     14.56440908	     -3.02947398	    -10.20797622	     -9.16810126	      3.01299909	    -14.60588647	      0.00000000	    -22.88252466	      3.83448385	     -4.12181813	    -16.28557383	     -4.39097477	    -10.97223463	      0.00000000	    -10.40606590	     -0.55643445	   -186.51599064
      5.61000000	      4.55863401	      3.10895814	     -2.16152022	      1.38002710	      1.04385484	     -0.26280737	     14.22935850	     -2.23893783	    -10.56371624	    -10.31770664	      2.27832609	    -15.25049175	      0.00000000	    -22.31804750	      2.68330216	     -5.85592724	    -18.78760668	     -6.39293182	    -10.33114416	      0.00000000	     -9.96174926	      0.25826571	   -186.08056351
      5.62000000	      4.64131634	      2.31154142	     -2.32047569	      1.39619700	      1.04433347	     -0.25987955	     13.86960695	     -1.42901773	    -10.94321263	    -11.48102356	      2.10824784	    -15.48747559	      0.00000000	    -21.64663236	      1.49791059	     -7.24904306	    -21.43488446	     -8.75913695	    -10.28071553	      0.00000000	     -9.58680994	      1.12217648	   -185.62788381
      5.63000000	      4.71968911	      1.52703725	     -2.51486275	      1.41205162	      1.04499953	     -0.25693366	     13.47488182	     -0.59458220	    -11.07666417	    -12.59376502	      2.39018054	    -15.62759204	      0.00000000	    -20.82079272	      0.32455038	     -8.39039594	    -24.26019455	    -11.23824670	    -10.56163926	      0.00000000	     -9.27528443	      1.96361391	   -185.09347861
      5.64000000	      4.75134098	      0.85247906	     -2.66225069	      1.42752375	      1.04578693	     -0.25418115	     13.09168774	      0.11871339	    -11.26307075	    -13.64763908	      3.20964963	    -15.35666763	      0.00000000	    -19.78698503	     -0.69788168	     -8.95180969	    -27.21785878	    -14.01688530	    -11.61156018	      0.00000000	     -8.98685150	      2.69919520	   -184.60443826
      5.65000000	      4.75440355	      0.24134007	     -2.77491415	      1.44259277	      1.04663118	     -0.25148473	     12.64494607	      0.81542371	    -11.23260691	    -14.51732092	      4.15790624	    -15.24560326	      0.00000000	    -18.53887077	     -1.63947418	     -9.16825294	    -30.34893057	    -16.73940408	    -13.02559907	      0.00000000	     -8.75396514	      3.35497263	   -184.12298236
